<svg xmlns="http://www.w3.org/2000/svg" viewBox="0 0 832.41 696.07"><title>logo</title><g id="Layer_2" data-name="Layer 2"><g id="Layer_1-2" data-name="Layer 1"><path d="M610.73,349.33l-39.15,75.85c-2-6.64-4.22-12-5-17.64-2-13.93-10-21.51-22.47-28C482.23,347.25,420.91,314,359.52,280.8a16.45,16.45,0,0,0-14.21-1.15,40.46,40.46,0,0,0-20.65,15.15c-9.15,13.27-17.56,27.05-25.91,40.85-5.69,9.39-10.49,19.32-16.14,28.74-15.61,26-21.59,32.18-49.76,52.73,4.23,23.06,8.46,46.12,12.81,69.86L37.41,576.79c-2.47-7-4.91-13.64-7.18-20.37C12.56,504.22.82,450.9,0,395.54c-.55-39.16,4.76-77.38,18.22-114.33,5-13.87,14.49-24.67,24.22-35.11a307.19,307.19,0,0,1,26.67-24.83c3.88-3.29,5.46-6.28,4.2-9.52-4.3-1.29-7.88-1.77-10.88-3.37C45,199.05,31.92,186,28,165.64c-.13-.65-.24-1.31-.39-2-2-8.67.16-15.46,6.28-22.6C76.43,91.35,124.93,48.56,180.07,13.23c5.23-3.35,9.73-4.21,15.08-1.35,1.61.85,3.39,1.38,5,2.16,18.58,8.82,25.85,23.51,19.65,43a52.41,52.41,0,0,0-1.54,26.47c4.92,27.35,2.38,54.79-1.31,82.1-.93,6.93-2.13,13.83-3.44,20.7-.58,3,0,4.68,3.07,6.12,22.95,10.67,45.8,21.54,68.64,32.44,2.48,1.18,4.31,1.29,6.77-.39,11.59-7.93,24.44-9.51,37.1-4,8.54,3.73,16.49,9.27,23.87,15.06,6.59,5.16,9.14,13.06,8.91,21.43-.08,3,.68,4.41,3.35,5.67Q468.51,311.32,571.71,360a9.83,9.83,0,0,0,6.54.19C588.71,356.91,599.06,353.28,610.73,349.33ZM195.46,419.1c24.16.14,43.27-8.8,59.48-26.08,13.94-14.86,23.61-32.54,33.57-50.09,8.86-15.62,17.7-31.32,27.6-46.29,7.85-11.87,18.41-21.06,33.28-23.73,1.2-.22,2.46-1.6,3.2-2.76,5.88-9.25,5.32-21.21-2-29.27-8.63-9.5-19.26-16.13-32.23-17.5-12.62-1.32-28.39,2.34-31.22,21.35-.54,3.62-1.21,7.23-2,10.79s-1.26,7.39-3.05,10.41c-7,11.9-14.25,23.7-21.87,35.23-10,15.16-20.38,30.12-34.37,42-14.42,12.28-28.59,14-45.2,4.81a118.23,118.23,0,0,1-19.69-13.58c-17.61-15-34.74-30.63-52.24-45.79-8.56-7.43-17.59-14.29-28.53-18.06-8.72-3-16.06-1-22.11,5.84a46.25,46.25,0,0,0-12,33.94c.77,17,8.57,31,19.38,43.4,20.1,23.16,45.54,38.69,73.51,50.41C158.19,412.25,178,418.51,195.46,419.1ZM211,345.88c8.86-3.81,17-10.14,26.34-22.79,10.83-14.74,20.67-30.2,31.09-45.24,7.11-10.27,12.3-21.13,13.55-33.82.34-3.52-.27-4.93-3.22-6.49-21.33-11.29-42.55-22.77-63.82-34.17-1.28-.68-2.63-1.22-4.77-2.2-.53,5-1.12,9.41-1.45,13.83-.74,9.6-.28,19.43-2.23,28.76-3.54,16.89-15,22.84-31.45,17.59-3.87-1.24-7.61-2.85-12.61-4.74C183.12,284.78,196.3,315.56,211,345.88Zm1-268c-6.34,8.79-11.91,17.25-18.21,25.11-21.23,26.5-45.91,49.53-72.47,70.56-2.88,2.28-3,3.91-1.31,6.93,7,12.27,17.83,19.48,31,23.59,15.27,4.78,31,5.42,46.88,5.94,4.36.14,5.62-1.44,6.46-5.32,5.59-25.74,9.6-51.7,10.88-78C216,110.56,215.53,94.46,212,77.9ZM101.13,189.19c-4.09,2.9-7.58,6.14-11.67,8.13-9.57,4.65-12.75,11.49-10.23,21.93,1.06,4.44,1.73,8.51,5.07,12,8.42,8.76,16.32,18,24.87,26.64,19.25,19.4,39.07,38.19,62.7,52.32,5.87,3.51,12.35,6,18.56,9,.57-1.73.44-2.32.18-2.85-15.08-30.72-31.26-60.48-58.08-83.21C118.74,221.43,109,206.06,101.13,189.19Z"/><path d="M145.28,696.07a160.54,160.54,0,0,1-59-12.18C77.2,680,68.68,675.15,62,667.65c-6.19-7-8.88-14.72-5.24-23.94a4.47,4.47,0,0,0-1.1-4c-17.45-14.08-21.52-32.78-19-53.87.35-2.87,1.33-4.66,4.26-5.92,67.58-29,135-58.51,202.79-87,11.1-4.66,23.92-5.67,36.09-7.26,25.83-3.39,51.54-3.05,76.56,5.47,22.87,7.78,41.73,21.39,54.12,42,4.89,8.16,6.52,18.84,7.65,28.6,4,34.55-11.71,59.9-39.6,78.38-29.26,19.39-61.41,30.93-96.72,32.81-9.14.49-18.31.64-27.44,1.24a25.09,25.09,0,0,0-8.09,2.08C215.83,689.42,184.59,696.07,145.28,696.07Z"/><path d="M677.34,595.94c-13.92,0-27.21.1-40.49-.17-1.26,0-3-2.21-3.63-3.76-11-27.62-10-55.31-.06-83,9.7-27.11,26.32-49.85,44.51-71.77C704.43,405,728.7,371,745,332c7.51-18,12.37-36.59,12.19-56.23a18.45,18.45,0,0,0-1.71-7.65,228.86,228.86,0,0,0-42.94-61.62c-2.37-2.43-4.22-3-7.67-1.85-10.06,3.47-20.35,6.26-30.53,9.37-4.85,1.48-9.2.92-12.47-2.85L646.56,221c1.17-2.38,1.68-3.43,2.27-4.64l-4.5-2.39L660,209.42c-1.68-4.64-3.22-8.12-4.21-11.76-2-7.2-.17-12.08,6.31-14.27,21.37-7.21,42.71-14.68,64.45-20.6,13.56-3.69,27.78-2.93,41.51,1.15,25.21,7.48,39.74,27.44,40.25,55.54.33,17.81-3.86,34.82-11.29,50.79-6.22,13.39-14,26.09-21,39.11-.93,1.73-2.18,3.45-2.54,5.32-7.66,39.71-26.68,73.94-50.82,105.73-10.57,13.91-21.9,27.32-31.48,41.89-14.48,22-23.38,46.27-25,72.87A125,125,0,0,0,675,589.94C675.75,591.75,676.43,593.58,677.34,595.94Z"/><path d="M832.41,652.51c-19.47,17.62-40.71,29.78-66.69,32.33-.19,2.13-.36,3.93-.56,6.07h-189l-.82-6.23c-25.56-3.07-47.93-13-66.62-32.17Z"/><path d="M670.45,626.69c-27.48,0-55-.13-82.43.11-4.95,0-7.26-2-8.68-6.27a16.92,16.92,0,0,1,14.74-22.39c.66,0,1.33,0,2,0q74.68,0,149.38,0c11.92,0,19.81,10,17,21-1.54,6.12-3.31,7.52-9.61,7.52H670.45Z"/><path d="M558.7,650c-1.22-10,4.62-18.58,14.06-20.82a30.46,30.46,0,0,1,6.93-.75q91-.06,182,0c5.88,0,11.25,1.25,15.58,5.49s6.24,9.6,5.81,16.11Z"/><path d="M22.54,103c-4.62-19.86-2-37.49,8.56-53.64,14.55-22.33,36-34.48,61.45-40.22C108,5.7,125.26,5.59,135.82,8.39c-2.15,2.38-4.26,4.41-6,6.7-6.26,8.2-12.37,16.5-18.58,24.72-1.08,1.43-2.17,3.17-3.67,3.9C76.42,58.9,47.14,76.74,22.54,103Z"/><path d="M108.22,47.29c-4.5,8.92-8.3,16.5-12.19,24a12.33,12.33,0,0,1-2.71,3.5,655.07,655.07,0,0,0-69.48,72.35,26.81,26.81,0,0,0-1.56,2.38c-7-9.43-10-19.25-8.83-30.11.21-2.08,1.77-4.22,3.19-5.94C35.85,90.31,59.92,73.24,86.08,58.88,93,55.07,100.12,51.52,108.22,47.29Z"/><path d="M183.28,5.79,101.42,66.57c-.12.74-.15.19,0-.24,10.85-23.31,24.63-44.59,43.8-62A17.91,17.91,0,0,1,154.89.3C165.16-.74,175.07.85,183.28,5.79Z"/></g></g></svg>